<?xml version="1.0" encoding="UTF-8" standalone="no"?>
<svg
   id="Layer_1"
   data-name="Layer 1"
   viewBox="0 0 200 200"
   version="1.1"
   sodipodi:docname="TeamOvisLogo.svg"
   width="200"
   height="200"
   inkscape:version="1.4 (86a8ad7, 2024-10-11)"
   xmlns:inkscape="http://www.inkscape.org/namespaces/inkscape"
   xmlns:sodipodi="http://sodipodi.sourceforge.net/DTD/sodipodi-0.dtd"
   xmlns="http://www.w3.org/2000/svg"
   xmlns:svg="http://www.w3.org/2000/svg">
  <sodipodi:namedview
     id="namedview18"
     pagecolor="#ffffff"
     bordercolor="#999999"
     borderopacity="1"
     inkscape:showpageshadow="2"
     inkscape:pageopacity="0"
     inkscape:pagecheckerboard="0"
     inkscape:deskcolor="#d1d1d1"
     inkscape:zoom="3.1905515"
     inkscape:cx="136.02664"
     inkscape:cy="103.58711"
     inkscape:window-width="3440"
     inkscape:window-height="1369"
     inkscape:window-x="-8"
     inkscape:window-y="-8"
     inkscape:window-maximized="1"
     inkscape:current-layer="Layer_1" />
  <defs
     id="defs1">
    <style
       id="style1">
      .cls-1 {
        fill: #fff;
      }

      .cls-2 {
        fill: red;
      }
    </style>
  </defs>
  <g
     id="g2"
     transform="matrix(0.16234921,0,0,0.16234921,0.72098305,5.1049326e-4)">
    <path
       d="m 255.62,924.59 h 733.96 c 11.97,0 23.48,-4.65 32.08,-12.98 l 143.92,-139.18 c 74.8,-72.34 76.81,-192.73 4.47,-267.53 L 823.15,146.2 C 639.02,-44.19 332.59,-49.31 142.2,134.82 v 0 C -45.11,322.13 -47.7,631.19 136.46,821.61 l 86,88.92 c 8.69,8.99 20.67,14.07 33.17,14.07 z"
       id="path1" />
    <path
       d="m 464.88,1137.94 c -8.42,0 -12.71,10.12 -6.86,16.17 l 19.69,20.36 c 72.34,74.8 192.73,76.81 267.53,4.47 l 25.44,-24.61 c 6.17,-5.96 1.94,-16.4 -6.63,-16.4 H 464.87 Z"
       id="path2" />
  </g>
  <g
     id="g7"
     transform="matrix(0.16234921,0,0,0.16234921,0.72098305,5.1049326e-4)">
    <path
       class="cls-1"
       d="m 217.58,460.39 c -35.73,5.09 -49.57,18.99 -67.58,28.96 -0.57,0.32 -0.91,0.93 -0.86,1.59 1.99,23.97 6.64,48.05 13.82,71.64 9.39,30.85 24.77,58.17 43.66,82.11 0.7,0.89 2.08,0.82 2.69,-0.13 21.63,-33.83 72.33,-44.32 96.4,-46.74 1.14,-0.11 1.81,-1.31 1.33,-2.35 -16.57,-35.29 -25.95,-74.94 -20.4,-118.43 0.12,-0.95 -0.58,-1.81 -1.54,-1.86 -16.34,-0.85 -38.11,-18.98 -67.51,-14.79 z"
       id="path3" />
    <path
       class="cls-1"
       d="m 318.14,616.75 c -0.42,-0.68 -1.27,-0.98 -2.01,-0.68 -15.72,6.45 -28.62,-2.52 -60.18,18.09 -8.84,5.77 -20.57,17.77 -29.57,33.26 212.91,191.48 356.25,40.49 336.27,45.41 -52.13,12.84 -151.08,54.78 -244.51,-96.08 z"
       id="path4" />
    <path
       class="cls-1"
       d="m 353.36,298.17 c -12.11,-38.03 -38.49,-55.09 -54.74,-73.48 -0.48,-0.55 -1.27,-0.72 -1.93,-0.41 -101.23,46.23 -148.18,139.43 -148.66,238.32 0,1.58 1.98,2.28 2.95,1.04 38.74,-49.72 121.07,-14.42 136.77,-5.46 0.97,0.55 2.18,0.01 2.43,-1.07 1.08,-4.72 2.34,-9.47 3.79,-14.27 9.76,-32.33 32.79,-50.96 59.66,-58.89 0.81,-0.24 1.33,-1.05 1.16,-1.88 -3.8,-19.26 12.86,-39 -1.43,-83.9 z"
       id="path5" />
    <path
       class="cls-1"
       d="m 375.22,200.33 c -18.79,3.33 -36.33,7.91 -52.68,13.6 -1.49,0.52 -1.48,2.63 0.01,3.14 0.02,0 0.03,0.01 0.05,0.02 76.26,25.88 60.85,132.88 53.85,160.5 -0.28,1.1 0.6,2.13 1.73,2.05 38,-2.77 88.38,5.3 107.62,30.36 24.6,32.03 35.36,1.1 66.13,-21.06 40.5,-29.17 56.89,-44.39 57.56,-85.42 0,-0.11 0,-0.22 -0.03,-0.34 -0.98,-5.4 -27.56,-139.47 -234.25,-102.85 z"
       id="path6" />
    <path
       class="cls-1"
       d="m 398.87,684.96 c -1.94,-12.67 4.79,-134.87 37.33,-183.27 41.86,-62.26 87.36,-61.19 109.33,-86.21 21.97,-25.02 72.38,-44.19 85.18,-78.52 20.67,-55.47 -50.94,-124.01 -50.94,-124.01 78.47,6.99 80.59,59.96 174.77,117.38 94.19,57.42 234.53,379.33 242.07,419.24 4.56,24.13 -15.58,47.13 -43.34,63.11 -8.06,4.64 -18.42,2.56 -23.95,-4.92 -12.82,-17.34 -36.71,-33.25 -46.7,-51.9 0,0 16.44,31.8 31.37,55.32 4.94,7.77 0.61,18.01 -8.37,20.02 -3.96,0.89 -7.89,1.61 -11.77,2.15 -50.3,7.06 -35.4,-45.35 -110.7,-83.17 -75.31,-37.82 -170.19,-125.46 -182.53,-137.8 -12.34,-12.33 24.29,-134.49 6.53,-131.95 -10.6,1.52 -1.64,82.35 -56.19,125.91 -97.45,77.83 -149.61,94.86 -152.09,78.61 z"
       id="path7" />
  </g>
  <g
     id="g15"
     transform="matrix(0.16234921,0,0,0.16234921,0.72098305,5.1049326e-4)">
    <path
       d="M 79.61,1101.52 V 987.15 c 0,-1 -0.81,-1.81 -1.81,-1.81 H 35.03 c -1,0 -1.81,-0.81 -1.81,-1.81 v -18.37 c 0,-1 0.81,-1.81 1.81,-1.81 H 150.2 c 1,0 1.81,0.81 1.81,1.81 v 18.37 c 0,1 -0.81,1.81 -1.81,1.81 h -42.77 c -1,0 -1.81,0.81 -1.81,1.81 v 114.37 c 0,1 -0.81,1.81 -1.81,1.81 H 81.44 c -1,0 -1.81,-0.81 -1.81,-1.81 z"
       id="path8" />
    <path
       d="m 199.42,1081.34 h 75.37 c 1,0 1.81,0.81 1.81,1.81 v 18.37 c 0,1 -0.81,1.81 -1.81,1.81 H 173.42 c -1,0 -1.81,-0.81 -1.81,-1.81 V 965.15 c 0,-1 0.81,-1.81 1.81,-1.81 h 98.57 c 1,0 1.81,0.81 1.81,1.81 v 18.37 c 0,1 -0.81,1.81 -1.81,1.81 h -72.57 c -1,0 -1.81,0.81 -1.81,1.81 v 92.37 c 0,1 0.81,1.81 1.81,1.81 z m -2,-59.8 h 65.97 c 1,0 1.81,0.81 1.81,1.81 v 17.77 c 0,1 -0.81,1.81 -1.81,1.81 h -65.97 c -1,0 -1.81,-0.81 -1.81,-1.81 v -17.77 c 0,-1 0.81,-1.81 1.81,-1.81 z"
       id="path9" />
    <path
       d="m 286.96,1100.78 61.37,-136.37 c 0.29,-0.65 0.94,-1.07 1.65,-1.07 h 23.26 c 0.71,0 1.36,0.42 1.65,1.07 l 61.56,136.37 c 0.54,1.2 -0.34,2.56 -1.65,2.56 h -23.39 c -0.73,0 -1.38,-0.43 -1.67,-1.1 L 357.29,979.67 c -0.51,-1.2 0.37,-2.53 1.67,-2.53 h 4.9 c 1.3,0 2.18,1.33 1.67,2.53 l -52.64,122.57 c -0.29,0.67 -0.94,1.1 -1.67,1.1 h -22.6 c -1.32,0 -2.19,-1.36 -1.65,-2.56 z m 30.41,-29.84 c -1.25,0 -2.13,-1.24 -1.71,-2.42 l 5.92,-16.77 c 0.26,-0.73 0.94,-1.21 1.71,-1.21 h 72.82 c 0.77,0 1.46,0.49 1.72,1.23 l 5.76,16.77 c 0.4,1.18 -0.47,2.4 -1.72,2.4"
       id="path10" />
    <path
       d="M 455.4,1101.52 V 965.15 c 0,-1 0.81,-1.81 1.81,-1.81 h 18.56 c 0.64,0 1.23,0.33 1.56,0.88 l 59.03,98.57 c 0.72,1.21 -0.15,2.75 -1.56,2.75 h -4.83 c -1.4,0 -2.28,-1.53 -1.56,-2.73 l 58.06,-98.57 c 0.33,-0.55 0.92,-0.89 1.56,-0.89 h 18.55 c 1,0 1.81,0.81 1.81,1.81 l 0.39,136.37 c 0,1 -0.81,1.82 -1.81,1.82 H 585.6 c -1,0 -1.81,-0.81 -1.81,-1.81 v -97.77 c 0,-1 0.81,-1.81 1.81,-1.81 v 0 c 1.41,0 2.28,1.53 1.56,2.74 l -48.65,81.97 c -0.33,0.55 -0.92,0.89 -1.56,0.89 h -9.75 c -0.63,0 -1.22,-0.33 -1.55,-0.87 l -49.8,-81.97 c -0.73,-1.21 0.14,-2.76 1.55,-2.76 h 0.96 c 1,0 1.81,0.81 1.81,1.81 v 97.77 c 0,1 -0.81,1.81 -1.81,1.81 h -21.17 c -1,0 -1.81,-0.81 -1.81,-1.81 z"
       id="path11" />
    <path
       class="cls-2"
       d="m 767.2,1105.34 c -10.8,0 -20.83,-1.8 -30.1,-5.4 -9.27,-3.6 -17.3,-8.67 -24.1,-15.2 -6.8,-6.53 -12.07,-14.17 -15.8,-22.9 -3.73,-8.73 -5.6,-18.23 -5.6,-28.5 0,-10.27 1.87,-19.97 5.6,-28.7 3.73,-8.73 9,-16.33 15.8,-22.8 6.8,-6.47 14.8,-11.5 24,-15.1 9.2,-3.6 19.27,-5.4 30.2,-5.4 10.93,0 20.8,1.77 30,5.3 9.2,3.53 17.17,8.53 23.9,15 6.73,6.47 11.97,14.1 15.7,22.9 3.73,8.8 5.6,18.4 5.6,28.8 0,10.4 -1.87,19.97 -5.6,28.7 -3.73,8.73 -8.97,16.37 -15.7,22.9 -6.73,6.54 -14.7,11.57 -23.9,15.1 -9.2,3.53 -19.2,5.3 -30,5.3 z m 0,-22.8 c 7.07,0 13.57,-1.2 19.5,-3.6 5.93,-2.4 11.1,-5.8 15.5,-10.2 4.4,-4.4 7.83,-9.6 10.3,-15.6 2.47,-6 3.7,-12.6 3.7,-19.8 0,-7.2 -1.2,-13.8 -3.6,-19.8 -2.4,-6 -5.83,-11.2 -10.3,-15.6 -4.47,-4.4 -9.67,-7.8 -15.6,-10.2 -5.93,-2.4 -12.43,-3.6 -19.5,-3.6 -7.07,0 -13.63,1.2 -19.7,3.6 -6.07,2.4 -11.3,5.83 -15.7,10.3 -4.4,4.47 -7.87,9.67 -10.4,15.6 -2.53,5.93 -3.8,12.5 -3.8,19.7 0,7.2 1.27,13.6 3.8,19.6 2.53,6 6,11.23 10.4,15.7 4.4,4.47 9.63,7.9 15.7,10.3 6.07,2.4 12.63,3.6 19.7,3.6 z"
       id="path12" />
    <path
       class="cls-2"
       d="M 910.92,1102.25 851.31,965.88 c -0.52,-1.2 0.35,-2.54 1.66,-2.54 h 24.23 c 0.72,0 1.38,0.43 1.67,1.1 l 53.03,122.97 c 0.52,1.2 -0.36,2.53 -1.67,2.53 h -10.86 c -1.31,0 -2.19,-1.34 -1.66,-2.54 l 54.01,-122.97 c 0.29,-0.66 0.94,-1.08 1.66,-1.08 h 21.85 c 1.31,0 2.19,1.34 1.66,2.54 l -59.42,136.37 c -0.29,0.66 -0.94,1.09 -1.66,1.09 h -23.22 c -0.72,0 -1.37,-0.43 -1.66,-1.09 z"
       id="path13" />
    <path
       class="cls-2"
       d="M 1015.79,1101.52 V 965.15 c 0,-1 0.81,-1.81 1.81,-1.81 h 22.37 c 1,0 1.81,0.81 1.81,1.81 v 136.37 c 0,1 -0.81,1.81 -1.81,1.81 h -22.37 c -1,0 -1.81,-0.81 -1.81,-1.81 z"
       id="path14" />
    <path
       class="cls-2"
       d="m 1122.99,1105.34 c -10.93,0 -21.37,-1.57 -31.3,-4.7 -9.34,-2.94 -16.94,-6.69 -22.8,-11.22 -0.65,-0.51 -0.86,-1.41 -0.53,-2.16 l 7.5,-16.84 c 0.47,-1.05 1.77,-1.41 2.7,-0.74 5.27,3.81 11.61,7.03 19.02,9.66 8.27,2.93 16.73,4.4 25.4,4.4 7.33,0 13.27,-0.8 17.8,-2.4 4.53,-1.6 7.87,-3.77 10,-6.5 2.13,-2.73 3.2,-5.83 3.2,-9.3 0,-4.27 -1.53,-7.7 -4.6,-10.3 -3.07,-2.6 -7.03,-4.67 -11.9,-6.2 -4.87,-1.53 -10.27,-2.93 -16.2,-4.2 -5.93,-1.27 -11.87,-2.83 -17.8,-4.7 -5.93,-1.87 -11.37,-4.23 -16.3,-7.1 -4.93,-2.87 -8.9,-6.7 -11.9,-11.5 -3,-4.8 -4.5,-10.93 -4.5,-18.4 0,-7.47 2.03,-14.57 6.1,-20.9 4.07,-6.33 10.27,-11.4 18.6,-15.2 8.33,-3.8 18.9,-5.7 31.7,-5.7 8.4,0 16.73,1.07 25,3.2 7.7,1.99 14.47,4.78 20.32,8.39 0.75,0.46 1.04,1.41 0.71,2.22 l -6.85,16.86 c -0.41,1.02 -1.63,1.42 -2.59,0.89 -5.7,-3.21 -11.57,-5.63 -17.6,-7.26 -6.67,-1.8 -13.07,-2.7 -19.2,-2.7 -7.07,0 -12.87,0.87 -17.4,2.6 -4.53,1.73 -7.83,4.03 -9.9,6.9 -2.07,2.87 -3.1,6.04 -3.1,9.5 0,4.27 1.5,7.7 4.5,10.3 3,2.6 6.93,4.63 11.8,6.1 4.87,1.47 10.3,2.87 16.3,4.2 6,1.33 11.93,2.9 17.8,4.7 5.87,1.8 11.27,4.13 16.2,7 4.93,2.87 8.9,6.67 11.9,11.4 3,4.73 4.5,10.77 4.5,18.1 0,7.33 -2.03,14.37 -6.1,20.7 -4.07,6.33 -10.3,11.4 -18.7,15.2 -8.4,3.8 -19,5.7 -31.8,5.7 z"
       id="path15" />
  </g>
  <path
     d="m 110.21091,71.89523 c 3.33466,-1.78909 8.97467,4.76982 13.28504,2.04236 4.31037,-2.72747 10.93747,-0.0861 3.09437,-3.71618 -7.84309,-3.63175 -7.61255,-4.41427 -12.70869,-0.70459 0,0 -7.00537,4.1675 -3.67072,2.38004 z"
     id="path16"
     style="stroke-width:0.162349" />
  <path
     d="m 123.40341,83.3928 c 1.95631,-1.0504 5.26823,2.80053 7.79926,1.19814 2.5294,-1.60076 6.42091,-0.0503 1.81668,-2.18197 -4.60422,-2.13165 -4.46947,-2.5911 -7.45994,-0.41399 0,0 -4.11231,2.4466 -2.15438,1.3962 z"
     id="path17"
     style="stroke-width:0.162349" />
  <path
     d="m 131.19617,93.76854 c 1.95631,-1.0504 5.26823,2.80053 7.79926,1.19814 2.5294,-1.60076 6.42091,-0.0503 1.81669,-2.18197 -4.60423,-2.13165 -4.46948,-2.5911 -7.45995,-0.414 0,0 -4.11231,2.44661 -2.15437,1.39621 z"
     id="path18"
     style="stroke-width:0.162349" />
</svg>
