<?xml version="1.0" encoding="UTF-8" standalone="no"?>
<!-- Created with Inkscape (http://www.inkscape.org/) -->

<svg
   width="680.97552"
   height="342.70877"
   viewBox="0 0 180.17478 90.675026"
   version="1.1"
   id="svg1"
   xml:space="preserve"
   xmlns="http://www.w3.org/2000/svg"
   xmlns:svg="http://www.w3.org/2000/svg"><defs
     id="defs1"><filter
       style="color-interpolation-filters:sRGB"
       id="filter148-8"
       x="-0.035677169"
       y="-0.076263088"
       width="1.0713543"
       height="1.1525262"><feFlood
         result="flood"
         in="SourceGraphic"
         flood-opacity="1"
         flood-color="rgb(64,203,255)"
         id="feFlood147-5" /><feGaussianBlur
         result="blur"
         in="SourceGraphic"
         stdDeviation="2.5"
         id="feGaussianBlur147-7" /><feOffset
         result="offset"
         in="blur"
         dx="0.000000"
         dy="0.000000"
         id="feOffset147-6" /><feComposite
         result="comp1"
         operator="in"
         in="flood"
         in2="offset"
         id="feComposite147-1" /><feComposite
         result="comp2"
         operator="over"
         in="SourceGraphic"
         in2="comp1"
         id="feComposite148-8" /></filter></defs><g
     id="layer1"
     transform="translate(-29.562963,-11.547907)"><g
       id="g87"
       style="font-size:50.8px;line-height:0.8;display:inline;fill:#ffffff;fill-opacity:1;stroke-width:0.387;stroke-linejoin:round;filter:url(#filter148-8)"
       aria-label="Sheep,&#10;inc."><path
         style="font-weight:600;font-family:Chantal;-inkscape-font-specification:'Chantal Semi-Bold';fill:#ffffff;fill-opacity:1"
         d="m 203.72136,41.627107 c -0.3048,-2.0828 -2.4892,-2.7432 -4.3688,-2.7432 -0.8636,0 -2.1336,0.2032 -2.9972,0.9144 -1.3208,1.1684 -2.8448,12.7508 -2.6416,14.5796 0.1016,0.5588 0.508,2.286 2.7432,2.286 1.4732,0 3.6068,-1.4732 4.318,-2.1844 1.4224,-1.524 3.1496,-11.1252 2.9464,-12.8524 z"
         id="path91" /><path
         style="font-weight:600;font-family:Chantal;-inkscape-font-specification:'Chantal Semi-Bold';fill:#ffffff;fill-opacity:1"
         d="m 191.83417,30.501907 c -0.3048,-2.5908 -3.81,-4.7752 -6.1468,-5.9436 -2.286,-1.1176 -6.5024,-3.1496 -13.716,-3.1496 -2.2352,0 -4.7752,0.2032 -7.6708,0.7112 -1.3208,0.2032 -3.048,17.4752 -2.2352,23.9268 0.0508,0.8128 0.2032,1.4732 0.3556,1.9304 0.6096,2.0828 3.8608,3.9116 5.4864,3.9116 0.508,0 1.7272,-0.2032 2.032,-1.4224 0.4064,-1.6256 0.1524,-4.826 0.1524,-6.7564 7.4676,-1.8288 19.5072,-6.9596 21.5392,-11.7348 0.2032,-0.4572 0.254,-0.9652 0.2032,-1.4732 z m -8.2804,-0.4572 c -1.1684,1.9304 -8.89,4.9784 -13.3604,6.5532 0.1016,-2.9972 0.254,-6.5532 0.3048,-8.5344 0.9144,-0.0508 1.7272,-0.0508 2.54,-0.0508 5.588,0 8.5344,1.016 10.5156,2.032 z"
         id="path90" /><path
         style="font-weight:600;font-family:Chantal;-inkscape-font-specification:'Chantal Semi-Bold';fill:#ffffff;fill-opacity:1"
         d="m 158.10294,22.43873 c -0.1524,-1.9812 -5.334,-4.064 -7.2136,-4.064 -1.524,0 -3.6068,0.3556 -5.6896,0.762 -2.1844,0.4572 -4.6228,0.9652 -7.1628,1.3208 -1.8796,0.254 -2.0828,1.8796 -1.9812,2.6416 0.0508,0.6604 0.3556,1.27 0.6096,1.8796 -0.9652,7.3152 -1.8796,14.108377 -0.9652,21.677577 0.4572,3.6068 1.6256,9.906 6.9088,9.906 0.7112,0 1.524,-0.2032 2.1844,-0.4064 2.6416,-0.7112 11.9888,-2.4892 11.6332,-5.4356 -0.1524,-1.1684 -5.08,-3.2004 -7.0612,-3.2004 -1.9304,0 -3.8608,0.6604 -5.6896,1.1176 -0.1016,-0.7112 0,-2.7432 -0.1016,-3.5052 0,-0.1524 -0.0508,-0.254 -0.0508,-0.4064 1.8796,-0.5588 5.6896,-1.778 7.5184,-1.778 h 0.508 c 1.5748,0 4.3688,-1.27 4.5212,-3.2512 -0.254,-1.9304 -4.5212,-2.6924 -7.8232,-2.6416 -1.778,0 -3.302,0.4572 -4.8768,0.9652 0.3048,-3.556 0.8128,-8.469577 1.1684,-11.060377 2.6924,-0.6604 5.4356,-1.016 8.128,-1.5748 3.0988,-0.6604 5.4864,-2.1844 5.4356,-2.9464 z"
         id="path89" /><path
         style="font-weight:600;font-family:Chantal;-inkscape-font-specification:'Chantal Semi-Bold';fill:#ffffff;fill-opacity:1"
         d="m 132.75371,21.611907 c -0.1524,-1.9812 -5.334,-4.064 -7.2136,-4.064 -1.524,0 -3.6068,0.3556 -5.6896,0.762 -2.1844,0.4572 -4.6228,0.9652 -7.1628,1.3208 -1.8796,0.254 -2.0828,1.8796 -1.9812,2.6416 0.0508,0.6604 0.3556,1.27 0.6096,1.8796 -0.9652,7.3152 -1.8796,14.9352 -0.9652,22.5044 0.4572,3.6068 1.6256,9.906 6.9088,9.906 0.7112,0 1.524,-0.2032 2.1844,-0.4064 2.6416,-0.7112 11.9888,-2.4892 11.6332,-5.4356 -0.1524,-1.1684 -5.08,-3.2004 -7.0612,-3.2004 -1.9304,0 -3.8608,0.6604 -5.6896,1.1176 -0.1016,-0.7112 0,-2.7432 -0.1016,-3.5052 0,-0.1524 -0.0508,-0.254 -0.0508,-0.4064 1.8796,-0.5588 5.6896,-1.778 7.5184,-1.778 0.1524,0 0.3048,0 0.508,0 1.5748,0 4.3688,-1.27 4.5212,-3.2512 -0.254,-1.9304 -4.5212,-2.6924 -7.8232,-2.6416 -1.778,0 -3.302,0.4572 -4.8768,0.9652 0.3048,-3.556 0.8128,-9.2964 1.1684,-11.8872 2.6924,-0.6604 5.4356,-1.016 8.128,-1.5748 3.0988,-0.6604 5.4864,-2.1844 5.4356,-2.9464 z"
         id="path88" /><path
         id="path87"
         style="font-weight:600;font-family:Chantal;-inkscape-font-specification:'Chantal Semi-Bold';fill:#ffffff;fill-opacity:1"
         d="m 98.514399,22.272542 c -0.6604,0 -1.777962,0.253533 -2.184362,1.320333 -0.4572,1.1684 -0.609782,3.759671 -0.609782,6.198071 0,1.3208 -0.101398,5.333979 0.101802,6.857979 -3.047999,0.254 -8.889909,1.219072 -12.395109,1.879472 0.0508,-2.7432 0.0506,-6.756292 -0.101802,-7.721492 -0.254,-2.2352 -3.454082,-3.962549 -5.282882,-3.962549 -0.7112,0 -1.57492,0.203316 -2.13372,0.965316 -1.3208,1.9304 -0.965134,11.226452 -0.355534,16.154052 0.254,2.1336 1.725994,7.001856 3.6158,10.00094 0.871061,1.382356 2.366829,2.323782 3.439023,3.492853 l 5.008422,-5.182155 c -1.377257,-1.461718 -3.573841,-1.106571 -4.036861,-7.396965 l 12.090218,-1.422652 -0.05064,1.523938 c -0.0508,1.1684 -0.499338,2.991234 -1.210038,4.2995 -2.804713,5.16295 -7.491266,8.656346 -11.635173,13.241032 -2.093202,2.315851 -5.820155,7.477685 -7.071919,11.92692 -0.440045,1.564084 -0.968372,3.449169 -0.683545,5.299807 0.162107,1.053274 0.29972,6.997694 0.498026,8.650246 0.2032,1.778 2.79393,5.02915 5.53713,5.02915 1.6256,0 2.387654,-1.066763 2.489254,-2.184363 0.1524,-1.8288 0.101754,-8.280536 -0.05064,-13.157336 1.6256,1.524 3.200462,3.048331 4.826062,4.572331 3.4544,3.2512 6.959314,6.552799 8.280114,7.314799 0.762,0.4572 1.575077,0.507979 2.083077,0.507979 1.6256,0 4.97831,-1.269607 4.87671,-3.301607 -0.4064,-5.8928 -0.40486,-5.229502 -0.10006,-11.071502 0.0508,-1.4224 0.45239,-3.912877 0.35082,-4.725677 -0.0748,-0.502296 -0.83979,-5.723003 -3.58142,-8.960521 -0.950673,-1.122623 -0.740747,-0.95942 -1.541845,-1.599187 l -5.008422,5.182155 c 0.915171,0.993909 1.473945,2.955073 1.793307,4.555414 0.560646,2.809429 0.01015,3.411334 0.162503,8.592934 -1.6256,-1.524 -3.55557,-3.403955 -5.48597,-5.232755 -3.693175,-3.549285 -2.705599,-2.592371 -3.667477,-3.357418 1.418358,-6.514616 11.90266,-11.241558 14.678074,-20.496253 1.36572,-4.554041 2.5388,-11.841787 2.5896,-14.026187 0.1524,-4.4196 0.25369,-8.382124 0.10129,-9.652124 -0.254,-2.2352 -3.30204,-4.114478 -5.33404,-4.114478 z" /><path
         style="font-weight:600;font-family:Chantal;-inkscape-font-specification:'Chantal Semi-Bold';fill:#ffffff;fill-opacity:1"
         d="m 70.827302,27.657107 c -0.0508,-0.4064 -0.3048,-0.8128 -0.5588,-1.1684 -2.3368,-2.54 -5.1816,-3.5052 -8.4328,-3.5052 -9.7028,0 -22.4536,5.6896 -24.9936,7.9248 -1.3208,1.1684 -1.3716,3.2004 -1.2192,4.4196 0.1016,0.9144 0.4064,2.286 1.3208,3.1496 3.302,3.1496 13.0048,3.4036 17.3736,4.4704 -7.112,2.7432 -11.2776,2.3876 -12.2428,3.9116 -0.3556,0.4064 -0.4572,0.8128 -0.4064,1.3716 0.1524,1.0668 4.1656,3.4036 6.7564,3.4036 2.3876,0 11.2268,-3.7084 12.954,-4.9784 0.9144,-0.7112 1.2192,-1.7272 1.1176,-2.6416 -0.3048,-2.286 -2.794,-5.0292 -3.8608,-5.1308 -4.0132,-0.4064 -10.7188,-1.8288 -14.986,-3.556 4.0132,-2.3368 14.3764,-5.6896 19.7612,-5.6896 1.7272,0 2.1844,0.6604 3.556,0.6604 1.27,0 4.064,-0.9652 3.8608,-2.6416 z"
         id="path82" /><g
         id="g86"
         style="fill:#ffffff;fill-opacity:1"
         transform="translate(16.016241)"><path
           style="font-weight:600;font-family:Chantal;-inkscape-font-specification:'Chantal Semi-Bold';letter-spacing:0px;fill:#ffffff;fill-opacity:1"
           d="m 135.39522,90.073527 c -0.3048,-2.6924 -3.7084,-4.318 -6.6548,-4.318 -1.3716,0 -3.302,0.3048 -4.6228,1.3716 -1.4732,1.1176 -1.8796,2.6416 -1.7272,3.8608 0.3048,2.4384 2.8956,5.334 6.4516,5.2324 3.9116,-0.1016 6.9088,-3.302 6.5532,-6.1468 z"
           id="path83" /><path
           style="font-weight:600;font-family:Chantal;-inkscape-font-specification:'Chantal Semi-Bold';letter-spacing:0px;fill:#ffffff;fill-opacity:1"
           d="m 119.19005,83.215527 c -0.2032,-1.8288 -1.778,-3.2004 -3.6068,-3.2004 -0.9144,0 -1.778,0.3556 -2.3368,1.0668 -1.3208,1.9304 -7.5184,5.1308 -10.2616,5.6388 v -0.1524 c -1.0668,-7.9756 12.192,-19.1008 14.4272,-19.7612 0.8636,-0.254 1.8288,-0.9652 1.6764,-2.286 -0.254,-2.1844 -3.0988,-3.2512 -4.7752,-3.2512 -10.6172,0 -19.913596,17.0688 -19.049996,24.13 0.5588,4.572 4.572,7.8232 9.702796,7.8232 0.8636,0 1.7272,-0.1016 2.4892,-0.3556 3.9624,-1.3208 12.1412,-6.4008 11.7348,-9.652 z"
           id="path84"
           transform="matrix(0.90576449,0,0,0.90576449,8.6779123,9.0789432)" /><path
           style="font-weight:600;font-family:Chantal;-inkscape-font-specification:'Chantal Semi-Bold';letter-spacing:0px;fill:#ffffff;fill-opacity:1"
           d="m 51.321253,62.501935 c -0.1016,-0.762 -0.254,-1.6256 -0.5588,-2.2352 -0.9652,-1.9812 -3.7592,-2.286 -4.7752,-2.286 -0.9652,0 -2.3876,0.3048 -2.8956,1.27 -0.7112,1.27 -0.6604,20.459592 -0.1524,24.421992 0.1016,1.016 0.3048,2.1844 0.6604,2.8956 0.6604,1.2192 2.5908,3.5052 4.1656,3.5052 0.7112,0 1.27,-0.2032 1.6764,-0.508 1.3716,-0.9144 2.3876,-22.643992 1.8796,-27.063592 z"
           id="path86" /></g></g></g></svg>
